<?xml version="1.0" encoding="utf-8"?>
<!-- Generator: Adobe Illustrator 21.0.0, SVG Export Plug-In . SVG Version: 6.00 Build 0)  -->
<svg version="1.1" id="Layer_1" xmlns="http://www.w3.org/2000/svg" xmlns:xlink="http://www.w3.org/1999/xlink" x="0px" y="0px"
	 viewBox="0 0 181.8 181.8" style="enable-background:new 0 0 181.8 181.8;" xml:space="preserve">
<style type="text/css">
	.st0{fill:#F1F2F3;}
	.st1{fill:#FFFFFF;stroke:#263879;stroke-width:4.2188;stroke-linecap:round;stroke-linejoin:round;stroke-miterlimit:10;}
	.st2{fill:#CAD7FE;stroke:#1F3379;stroke-width:4.2188;stroke-linecap:round;stroke-linejoin:round;stroke-miterlimit:10;}
</style>
<g>
	<g>
		<circle class="st0" cx="90.9" cy="90.9" r="90.9"/>
	</g>
	<polygon class="st1" points="55.8,75.7 90.9,55.4 126.1,75.7 90.9,96 	"/>
	<g>
		<g>
			<g>
				<polygon class="st2" points="55.8,75.7 55.8,75.7 55.8,116.3 91,136.6 91,96 				"/>
				<polygon class="st2" points="91,55.4 91,55.4 91,96 126.1,116.3 126.1,75.7 				"/>
			</g>
			<polyline class="st1" points="91,96 55.8,75.7 38.2,85.9 73.4,106.2 91,96 55.8,75.7 			"/>
			<polyline class="st1" points="143.7,65.5 108.5,45.2 90.9,55.4 126.1,75.7 143.7,65.5 108.5,45.2 			"/>
		</g>
		<polygon class="st1" points="90.9,55.4 73.3,45.2 38.1,65.5 55.8,75.7 		"/>
	</g>
	<polygon class="st1" points="91,96 91,136.6 126.1,116.3 126.1,75.7 126.1,75.7 	"/>
	<polygon class="st1" points="143.7,85.8 126.1,75.7 90.9,96 108.5,106.2 	"/>
</g>
</svg>
