<?xml version="1.0" encoding="utf-8"?>
<!-- Generator: Adobe Illustrator 21.0.0, SVG Export Plug-In . SVG Version: 6.00 Build 0)  -->
<svg version="1.1" id="Layer_1" xmlns="http://www.w3.org/2000/svg" xmlns:xlink="http://www.w3.org/1999/xlink" x="0px" y="0px"
	 viewBox="0 0 181.8 181.8" style="enable-background:new 0 0 181.8 181.8;" xml:space="preserve">
<style type="text/css">
	.st0{fill:#F1F2F3;}
	
		.st1{fill:none;stroke:#1F3379;stroke-width:4.2188;stroke-linecap:round;stroke-linejoin:round;stroke-miterlimit:10;stroke-dasharray:8.1;}
	.st2{fill:#FFFFFF;stroke:#263879;stroke-width:4.2188;stroke-linecap:round;stroke-linejoin:round;stroke-miterlimit:10;}
	.st3{fill:#CAD7FE;stroke:#1F3379;stroke-width:4.2188;stroke-linecap:round;stroke-linejoin:round;stroke-miterlimit:10;}
</style>
<g>
	<circle class="st0" cx="90.9" cy="90.9" r="90.9"/>
	<line class="st1" x1="90.9" y1="48.8" x2="48" y2="123.1"/>
	<line class="st1" x1="90.9" y1="48.8" x2="133.8" y2="123.1"/>
	<line class="st1" x1="48" y1="123.1" x2="133.8" y2="123.1"/>
	<g>
		<g>
			<polygon class="st2" points="31.4,113.5 31.4,132.6 48,142.2 48,123.1 			"/>
			<polygon class="st2" points="48,123.1 64.6,113.5 48,103.9 31.4,113.5 31.4,113.5 			"/>
			<polygon class="st3" points="48,142.2 48,142.2 64.6,132.6 64.6,113.5 48,123.1 			"/>
		</g>
		<g>
			<polygon class="st2" points="133.8,142.2 150.4,132.6 150.4,113.5 133.8,123.1 			"/>
			<polygon class="st2" points="133.8,123.1 117.2,113.5 117.2,132.6 133.8,142.2 133.8,142.2 			"/>
			<polygon class="st3" points="150.4,113.5 150.4,113.5 133.8,103.9 117.2,113.5 133.8,123.1 			"/>
		</g>
		<g>
			<polygon class="st2" points="107.5,39.2 90.9,29.6 74.3,39.2 90.9,48.8 			"/>
			<polygon class="st2" points="90.9,48.8 90.9,67.9 107.5,58.3 107.5,39.2 107.5,39.2 			"/>
			<polygon class="st3" points="74.3,39.2 74.3,39.2 74.3,58.3 90.9,67.9 90.9,48.8 			"/>
		</g>
	</g>
</g>
</svg>
